<?xml version="1.0" encoding="UTF-8" standalone="no"?>
<!DOCTYPE svg PUBLIC "-//W3C//DTD SVG 1.1//EN"
 "http://www.w3.org/Graphics/SVG/1.1/DTD/svg11.dtd">
<!-- Generated by graphviz version 9.0.0 (20230911.1827)
 -->
<!-- Title: aula token Pages: 1 -->
<svg width="561pt" height="332pt"
 viewBox="0.00 0.00 560.65 332.00" xmlns="http://www.w3.org/2000/svg" xmlns:xlink="http://www.w3.org/1999/xlink">
<g id="graph0" class="graph" transform="scale(1 1) rotate(0) translate(4 328)">
<title>aula token</title>
<polygon fill="white" stroke="none" points="-4,4 -4,-328 556.65,-328 556.65,4 -4,4"/>
<!-- Phone -->
<g id="node1" class="node">
<title>Phone</title>
<polygon fill="none" stroke="black" points="117.06,-252 51.81,-252 51.81,-216 117.06,-216 117.06,-252"/>
<text text-anchor="start" x="63.81" y="-228.95" font-family="Helvetica,sans-Serif" font-size="14.00">Phone</text>
</g>
<!-- &#39;Pagina2&#39; -->
<g id="node2" class="node">
<title>&#39;Pagina2&#39;</title>
<polygon fill="none" stroke="black" points="240.31,-36 158.56,-36 158.56,0 240.31,0 240.31,-36"/>
<text text-anchor="start" x="170.56" y="-12.95" font-family="Helvetica,sans-Serif" font-size="14.00">&#39;Pagina2&#39;</text>
</g>
<!-- Phone&#45;&gt;&#39;Pagina2&#39; -->
<g id="edge1" class="edge">
<title>Phone&#45;&gt;&#39;Pagina2&#39;</title>
<path fill="none" stroke="black" d="M68.4,-215.85C60.42,-206.12 51.61,-193.27 47.43,-180 33.03,-134.21 19.64,-111.13 47.43,-72 69.83,-40.48 112.41,-27.55 146.83,-22.32"/>
<polygon fill="black" stroke="black" points="147.19,-25.8 156.64,-21.02 146.27,-18.86 147.19,-25.8"/>
</g>
<!-- &#39;Pagina3&#39; -->
<g id="node3" class="node">
<title>&#39;Pagina3&#39;</title>
<polygon fill="none" stroke="black" points="171.31,-180 89.56,-180 89.56,-144 171.31,-144 171.31,-180"/>
<text text-anchor="start" x="101.56" y="-156.95" font-family="Helvetica,sans-Serif" font-size="14.00">&#39;Pagina3&#39;</text>
</g>
<!-- Phone&#45;&gt;&#39;Pagina3&#39; -->
<g id="edge2" class="edge">
<title>Phone&#45;&gt;&#39;Pagina3&#39;</title>
<path fill="none" stroke="black" d="M95.81,-215.7C100.99,-207.81 107.23,-198.3 112.99,-189.55"/>
<polygon fill="black" stroke="black" points="115.8,-191.65 118.36,-181.37 109.95,-187.8 115.8,-191.65"/>
</g>
<!-- Pagina 2 -->
<g id="node4" class="node">
<title>Pagina 2</title>
<polygon fill="none" stroke="black" points="124.18,-324 44.68,-324 44.68,-288 124.18,-288 124.18,-324"/>
<text text-anchor="start" x="56.68" y="-300.95" font-family="Helvetica,sans-Serif" font-size="14.00">Pagina 2</text>
</g>
<!-- Pagina 2&#45;&gt;Phone -->
<g id="edge3" class="edge">
<title>Pagina 2&#45;&gt;Phone</title>
<path fill="none" stroke="black" d="M84.43,-287.7C84.43,-280.41 84.43,-271.73 84.43,-263.54"/>
<polygon fill="black" stroke="black" points="87.93,-263.62 84.43,-253.62 80.93,-263.62 87.93,-263.62"/>
</g>
<!-- Pagina 2&#45;&gt;&#39;Pagina2&#39; -->
<g id="edge4" class="edge">
<title>Pagina 2&#45;&gt;&#39;Pagina2&#39;</title>
<path fill="none" stroke="black" d="M60.58,-287.6C49.9,-278.35 38.38,-266 32.43,-252 1.14,-178.35 -19.04,-136.42 28.43,-72 55.37,-35.45 107.25,-23.36 146.83,-19.71"/>
<polygon fill="black" stroke="black" points="146.93,-23.21 156.64,-18.97 146.41,-16.23 146.93,-23.21"/>
</g>
<!-- Camara -->
<g id="node5" class="node">
<title>Camara</title>
<polygon fill="none" stroke="black" points="275.18,-252 201.68,-252 201.68,-216 275.18,-216 275.18,-252"/>
<text text-anchor="start" x="213.68" y="-228.95" font-family="Helvetica,sans-Serif" font-size="14.00">Camara</text>
</g>
<!-- Pagina 2&#45;&gt;Camara -->
<g id="edge5" class="edge">
<title>Pagina 2&#45;&gt;Camara</title>
<path fill="none" stroke="black" d="M122.9,-287.52C143.49,-278.16 169.04,-266.54 190.88,-256.62"/>
<polygon fill="black" stroke="black" points="192.22,-259.85 199.88,-252.52 189.33,-253.48 192.22,-259.85"/>
</g>
<!-- GaleriaFotos -->
<g id="node6" class="node">
<title>GaleriaFotos</title>
<polygon fill="none" stroke="black" points="389.31,-180 283.56,-180 283.56,-144 389.31,-144 389.31,-180"/>
<text text-anchor="start" x="295.56" y="-156.95" font-family="Helvetica,sans-Serif" font-size="14.00">GaleriaFotos</text>
</g>
<!-- Pagina 2&#45;&gt;GaleriaFotos -->
<g id="edge6" class="edge">
<title>Pagina 2&#45;&gt;GaleriaFotos</title>
<path fill="none" stroke="black" d="M124.64,-299.75C180.12,-291.77 276.28,-275.04 302.43,-252 319.89,-236.63 328.42,-211.29 332.58,-191.57"/>
<polygon fill="black" stroke="black" points="335.98,-192.4 334.32,-181.94 329.09,-191.15 335.98,-192.4"/>
</g>
<!-- local -->
<g id="node7" class="node">
<title>local</title>
<polygon fill="none" stroke="black" points="290.43,-108 236.43,-108 236.43,-72 290.43,-72 290.43,-108"/>
<text text-anchor="start" x="248.81" y="-84.95" font-family="Helvetica,sans-Serif" font-size="14.00">local</text>
</g>
<!-- Pagina 2&#45;&gt;local -->
<g id="edge7" class="edge">
<title>Pagina 2&#45;&gt;local</title>
<path fill="none" stroke="black" d="M65.83,-287.76C56.9,-278.2 47.14,-265.53 42.43,-252 25.7,-203.95 40.98,-176.14 80.43,-144 122.13,-110.04 184.66,-97.84 224.76,-93.46"/>
<polygon fill="black" stroke="black" points="225.06,-96.94 234.68,-92.5 224.39,-89.98 225.06,-96.94"/>
</g>
<!-- Camara&#45;&gt;&#39;Pagina2&#39; -->
<g id="edge8" class="edge">
<title>Camara&#45;&gt;&#39;Pagina2&#39;</title>
<path fill="none" stroke="black" d="M235.31,-215.85C228.62,-179.14 212.86,-92.66 204.63,-47.53"/>
<polygon fill="black" stroke="black" points="208.08,-46.93 202.85,-37.72 201.2,-48.19 208.08,-46.93"/>
</g>
<!-- Camara&#45;&gt;&#39;Pagina3&#39; -->
<g id="edge9" class="edge">
<title>Camara&#45;&gt;&#39;Pagina3&#39;</title>
<path fill="none" stroke="black" d="M211.46,-215.52C197.83,-206.68 181.1,-195.84 166.39,-186.3"/>
<polygon fill="black" stroke="black" points="168.63,-183.59 158.33,-181.08 164.82,-189.46 168.63,-183.59"/>
</g>
<!-- Camara&#45;&gt;Camara -->
<g id="edge10" class="edge">
<title>Camara&#45;&gt;Camara</title>
<path fill="none" stroke="black" d="M275.54,-247.4C285.56,-246.69 293.18,-242.23 293.18,-234 293.18,-229.24 290.64,-225.74 286.55,-223.5"/>
<polygon fill="black" stroke="black" points="287.56,-220.15 277,-220.99 285.78,-226.92 287.56,-220.15"/>
</g>
<!-- Camara&#45;&gt;GaleriaFotos -->
<g id="edge11" class="edge">
<title>Camara&#45;&gt;GaleriaFotos</title>
<path fill="none" stroke="black" d="M256.74,-215.7C268.09,-206.95 282.97,-196.19 296.84,-186.69"/>
<polygon fill="black" stroke="black" points="298.65,-189.69 304.97,-181.19 294.73,-183.89 298.65,-189.69"/>
</g>
<!-- Camara&#45;&gt;local -->
<g id="edge12" class="edge">
<title>Camara&#45;&gt;local</title>
<path fill="none" stroke="black" d="M236.89,-215.59C238.61,-191.5 246.02,-147.75 253,-119.03"/>
<polygon fill="black" stroke="black" points="256.33,-120.13 255.46,-109.58 249.55,-118.37 256.33,-120.13"/>
</g>
<!-- GaleriaFotos&#45;&gt;&#39;Pagina2&#39; -->
<g id="edge13" class="edge">
<title>GaleriaFotos&#45;&gt;&#39;Pagina2&#39;</title>
<path fill="none" stroke="black" d="M337.15,-143.65C337.05,-124.15 334.01,-92.52 317.43,-72 300.93,-51.56 274.87,-38.74 251.43,-30.84"/>
<polygon fill="black" stroke="black" points="252.58,-27.53 241.99,-27.89 250.49,-34.21 252.58,-27.53"/>
</g>
<!-- GaleriaFotos&#45;&gt;Camara -->
<g id="edge14" class="edge">
<title>GaleriaFotos&#45;&gt;Camara</title>
<path fill="none" stroke="black" d="M318.18,-180.26C306.88,-188.98 292.05,-199.69 278.21,-209.18"/>
<polygon fill="black" stroke="black" points="276.42,-206.17 270.1,-214.67 280.34,-211.97 276.42,-206.17"/>
</g>
<!-- GaleriaFotos&#45;&gt;GaleriaFotos -->
<g id="edge15" class="edge">
<title>GaleriaFotos&#45;&gt;GaleriaFotos</title>
<path fill="none" stroke="black" d="M389.6,-174.9C399.95,-173.4 407.31,-169.1 407.31,-162 407.31,-157.78 404.72,-154.55 400.44,-152.31"/>
<polygon fill="black" stroke="black" points="401.63,-149.02 391.05,-149.53 399.64,-155.73 401.63,-149.02"/>
</g>
<!-- GaleriaFotos&#45;&gt;local -->
<g id="edge16" class="edge">
<title>GaleriaFotos&#45;&gt;local</title>
<path fill="none" stroke="black" d="M312.47,-143.7C302.95,-135.39 292.21,-125.28 283.15,-116.14"/>
<polygon fill="black" stroke="black" points="285.9,-113.95 276.43,-109.19 280.86,-118.81 285.9,-113.95"/>
</g>
<!-- local&#45;&gt;&#39;Pagina2&#39; -->
<g id="edge17" class="edge">
<title>local&#45;&gt;&#39;Pagina2&#39;</title>
<path fill="none" stroke="black" d="M247.61,-71.7C240.1,-63.47 230.96,-53.48 222.68,-44.42"/>
<polygon fill="black" stroke="black" points="225.42,-42.24 216.09,-37.22 220.26,-46.96 225.42,-42.24"/>
</g>
<!-- local&#45;&gt;Camara -->
<g id="edge18" class="edge">
<title>local&#45;&gt;Camara</title>
<path fill="none" stroke="black" d="M265,-108.11C263.32,-132.03 255.94,-175.76 248.96,-204.6"/>
<polygon fill="black" stroke="black" points="245.61,-203.56 246.49,-214.12 252.39,-205.32 245.61,-203.56"/>
</g>
<!-- local&#45;&gt;GaleriaFotos -->
<g id="edge19" class="edge">
<title>local&#45;&gt;GaleriaFotos</title>
<path fill="none" stroke="black" d="M287.44,-108.35C296.9,-116.6 307.55,-126.62 316.57,-135.7"/>
<polygon fill="black" stroke="black" points="313.78,-137.86 323.25,-142.61 318.81,-132.99 313.78,-137.86"/>
</g>
<!-- local&#45;&gt;local -->
<g id="edge20" class="edge">
<title>local&#45;&gt;local</title>
<path fill="none" stroke="black" d="M290.67,-103.49C300.46,-103.78 308.43,-99.28 308.43,-90 308.43,-84.63 305.77,-80.87 301.63,-78.7"/>
<polygon fill="black" stroke="black" points="302.65,-75.34 292.16,-76.81 301.28,-82.2 302.65,-75.34"/>
</g>
<!-- &#39;Pagina6&#39; -->
<g id="node8" class="node">
<title>&#39;Pagina6&#39;</title>
<polygon fill="none" stroke="black" points="465.31,-36 383.56,-36 383.56,0 465.31,0 465.31,-36"/>
<text text-anchor="start" x="395.56" y="-12.95" font-family="Helvetica,sans-Serif" font-size="14.00">&#39;Pagina6&#39;</text>
</g>
<!-- local&#45;&gt;&#39;Pagina6&#39; -->
<g id="edge21" class="edge">
<title>local&#45;&gt;&#39;Pagina6&#39;</title>
<path fill="none" stroke="black" d="M290.75,-77.13C313.5,-67.23 346.51,-52.88 374.04,-40.91"/>
<polygon fill="black" stroke="black" points="375.12,-44.26 382.9,-37.06 372.33,-37.84 375.12,-44.26"/>
</g>
<!-- Pagina 3 -->
<g id="node9" class="node">
<title>Pagina 3</title>
<polygon fill="none" stroke="black" points="338.18,-324 258.68,-324 258.68,-288 338.18,-288 338.18,-324"/>
<text text-anchor="start" x="270.68" y="-300.95" font-family="Helvetica,sans-Serif" font-size="14.00">Pagina 3</text>
</g>
<!-- Pagina 3&#45;&gt;&#39;Pagina2&#39; -->
<g id="edge22" class="edge">
<title>Pagina 3&#45;&gt;&#39;Pagina2&#39;</title>
<path fill="none" stroke="black" d="M261.13,-287.56C240.58,-277.66 214.79,-264.72 192.43,-252 179.58,-244.68 87.52,-192.98 80.43,-180 51.81,-127.56 115.27,-72.96 160.06,-42.74"/>
<polygon fill="black" stroke="black" points="161.88,-45.74 168.31,-37.32 158.03,-39.88 161.88,-45.74"/>
</g>
<!-- Pagina 3&#45;&gt;Camara -->
<g id="edge23" class="edge">
<title>Pagina 3&#45;&gt;Camara</title>
<path fill="none" stroke="black" d="M283.6,-287.7C276.63,-279.56 268.17,-269.69 260.46,-260.7"/>
<polygon fill="black" stroke="black" points="263.25,-258.57 254.08,-253.25 257.93,-263.12 263.25,-258.57"/>
</g>
<!-- Pagina 3&#45;&gt;GaleriaFotos -->
<g id="edge24" class="edge">
<title>Pagina 3&#45;&gt;GaleriaFotos</title>
<path fill="none" stroke="black" d="M314.41,-287.83C322.37,-278.1 331.18,-265.25 335.43,-252 341.68,-232.51 341.73,-209.37 340.33,-191.57"/>
<polygon fill="black" stroke="black" points="343.82,-191.31 339.33,-181.71 336.86,-192.01 343.82,-191.31"/>
</g>
<!-- Pagina 3&#45;&gt;local -->
<g id="edge25" class="edge">
<title>Pagina 3&#45;&gt;local</title>
<path fill="none" stroke="black" d="M327.72,-287.72C373.73,-258.37 454.02,-196.79 416.43,-144 390.62,-107.73 338.19,-96.05 301.96,-92.42"/>
<polygon fill="black" stroke="black" points="302.58,-88.96 292.33,-91.63 302.01,-95.94 302.58,-88.96"/>
</g>
<!-- Pagina 6 -->
<g id="node10" class="node">
<title>Pagina 6</title>
<polygon fill="none" stroke="black" points="513.18,-324 433.68,-324 433.68,-288 513.18,-288 513.18,-324"/>
<text text-anchor="start" x="445.68" y="-300.95" font-family="Helvetica,sans-Serif" font-size="14.00">Pagina 6</text>
</g>
<!-- Pagina 6&#45;&gt;&#39;Pagina2&#39; -->
<g id="edge26" class="edge">
<title>Pagina 6&#45;&gt;&#39;Pagina2&#39;</title>
<path fill="none" stroke="black" d="M477.9,-287.95C480.37,-277.63 483.19,-264.15 484.43,-252 489.47,-202.99 490.5,-182.24 459.43,-144 406.33,-78.63 310.8,-45.21 251.5,-29.96"/>
<polygon fill="black" stroke="black" points="252.52,-26.61 241.98,-27.6 250.84,-33.4 252.52,-26.61"/>
</g>
<!-- Pagina 6&#45;&gt;Camara -->
<g id="edge27" class="edge">
<title>Pagina 6&#45;&gt;Camara</title>
<path fill="none" stroke="black" d="M433.3,-293.05C392.54,-280.9 329.42,-262.1 286.13,-249.21"/>
<polygon fill="black" stroke="black" points="287.34,-245.91 276.75,-246.41 285.34,-252.62 287.34,-245.91"/>
</g>
<!-- Pagina 6&#45;&gt;GaleriaFotos -->
<g id="edge28" class="edge">
<title>Pagina 6&#45;&gt;GaleriaFotos</title>
<path fill="none" stroke="black" d="M456.64,-287.59C432.57,-262.65 388.16,-216.62 360.58,-188.03"/>
<polygon fill="black" stroke="black" points="363.46,-185.97 353.99,-181.2 358.42,-190.83 363.46,-185.97"/>
</g>
<!-- Pagina 6&#45;&gt;local -->
<g id="edge29" class="edge">
<title>Pagina 6&#45;&gt;local</title>
<path fill="none" stroke="black" d="M474.42,-287.65C475.29,-255.06 472.33,-184.36 434.43,-144 400.11,-107.45 341.15,-95.92 302.22,-92.39"/>
<polygon fill="black" stroke="black" points="302.58,-88.9 292.35,-91.64 302.06,-95.89 302.58,-88.9"/>
</g>
<!-- Pagina 6&#45;&gt;&#39;Pagina6&#39; -->
<g id="edge30" class="edge">
<title>Pagina 6&#45;&gt;&#39;Pagina6&#39;</title>
<path fill="none" stroke="black" d="M497.46,-287.68C508.18,-278.44 519.68,-266.08 525.43,-252 555.7,-177.94 566.82,-140.46 525.43,-72 514.51,-53.93 495.15,-41.71 476.29,-33.61"/>
<polygon fill="black" stroke="black" points="477.61,-30.37 467.02,-29.97 475.05,-36.89 477.61,-30.37"/>
</g>
</g>
</svg>
