<?xml version="1.0" encoding="UTF-8" standalone="no"?>
<!DOCTYPE svg PUBLIC "-//W3C//DTD SVG 1.1//EN"
 "http://www.w3.org/Graphics/SVG/1.1/DTD/svg11.dtd">
<!-- Generated by graphviz version 9.0.0 (20230911.1827)
 -->
<!-- Title: apptablet Pages: 1 -->
<svg width="1306pt" height="188pt"
 viewBox="0.00 0.00 1306.35 188.00" xmlns="http://www.w3.org/2000/svg" xmlns:xlink="http://www.w3.org/1999/xlink">
<g id="graph0" class="graph" transform="scale(1 1) rotate(0) translate(4 184)">
<title>apptablet</title>
<polygon fill="white" stroke="none" points="-4,4 -4,-184 1302.35,-184 1302.35,4 -4,4"/>
<!-- Phone -->
<g id="node1" class="node">
<title>Phone</title>
<polygon fill="none" stroke="black" points="73.6,-180 8.35,-180 8.35,-144 73.6,-144 73.6,-180"/>
<text text-anchor="start" x="20.35" y="-156.95" font-family="Helvetica,sans-Serif" font-size="14.00">Phone</text>
</g>
<!-- HomePage -->
<g id="node2" class="node">
<title>HomePage</title>
<polygon fill="none" stroke="black" points="703.97,-36 607.97,-36 607.97,0 703.97,0 703.97,-36"/>
<text text-anchor="start" x="619.97" y="-12.95" font-family="Helvetica,sans-Serif" font-size="14.00">HomePage</text>
</g>
<!-- Phone&#45;&gt;HomePage -->
<g id="edge1" class="edge">
<title>Phone&#45;&gt;HomePage</title>
<path fill="none" stroke="black" d="M25.02,-143.55C9.05,-123.95 -10.68,-92.24 7.97,-72 47.39,-29.23 443.46,-20.97 596.27,-19.38"/>
<polygon fill="black" stroke="black" points="596.23,-22.88 606.19,-19.28 596.16,-15.88 596.23,-22.88"/>
</g>
<!-- AlterarPalavraPasse -->
<g id="node3" class="node">
<title>AlterarPalavraPasse</title>
<polygon fill="none" stroke="black" points="169.1,-108 16.85,-108 16.85,-72 169.1,-72 169.1,-108"/>
<text text-anchor="start" x="28.85" y="-84.95" font-family="Helvetica,sans-Serif" font-size="14.00">AlterarPalavraPasse</text>
</g>
<!-- Phone&#45;&gt;AlterarPalavraPasse -->
<g id="edge2" class="edge">
<title>Phone&#45;&gt;AlterarPalavraPasse</title>
<path fill="none" stroke="black" d="M53.83,-143.7C59.75,-135.73 66.9,-126.1 73.46,-117.26"/>
<polygon fill="black" stroke="black" points="76.21,-119.43 79.37,-109.32 70.59,-115.26 76.21,-119.43"/>
</g>
<!-- HomePage&#45;&gt;HomePage -->
<g id="edge3" class="edge">
<title>HomePage&#45;&gt;HomePage</title>
<path fill="none" stroke="black" d="M704.32,-31.06C714.57,-29.74 721.97,-25.38 721.97,-18 721.97,-13.62 719.36,-10.3 715.1,-8.05"/>
<polygon fill="black" stroke="black" points="716.35,-4.77 705.78,-5.36 714.41,-11.5 716.35,-4.77"/>
</g>
<!-- AlterarPalavraPasse&#45;&gt;HomePage -->
<g id="edge4" class="edge">
<title>AlterarPalavraPasse&#45;&gt;HomePage</title>
<path fill="none" stroke="black" d="M169.37,-73.39C172.27,-72.91 175.15,-72.44 177.97,-72 327.76,-48.76 505.49,-31.83 596.2,-23.95"/>
<polygon fill="black" stroke="black" points="596.45,-27.44 606.11,-23.09 595.85,-20.46 596.45,-27.44"/>
</g>
<!-- RegistrationofGymManagement_TabelaRegistos -->
<g id="node4" class="node">
<title>RegistrationofGymManagement_TabelaRegistos</title>
<polygon fill="none" stroke="black" points="520.47,-108 187.47,-108 187.47,-72 520.47,-72 520.47,-108"/>
<text text-anchor="start" x="199.47" y="-84.95" font-family="Helvetica,sans-Serif" font-size="14.00">RegistrationofGymManagement_TabelaRegistos</text>
</g>
<!-- RegistrationofGymManagement_TabelaRegistos&#45;&gt;HomePage -->
<g id="edge5" class="edge">
<title>RegistrationofGymManagement_TabelaRegistos&#45;&gt;HomePage</title>
<path fill="none" stroke="black" d="M429.4,-71.52C481.16,-59.52 548.88,-43.82 596.76,-32.73"/>
<polygon fill="black" stroke="black" points="597.45,-36.16 606.4,-30.49 595.86,-29.34 597.45,-36.16"/>
</g>
<!-- ReportPage -->
<g id="node5" class="node">
<title>ReportPage</title>
<polygon fill="none" stroke="black" points="639.6,-108 538.35,-108 538.35,-72 639.6,-72 639.6,-108"/>
<text text-anchor="start" x="550.35" y="-84.95" font-family="Helvetica,sans-Serif" font-size="14.00">ReportPage</text>
</g>
<!-- ReportPage&#45;&gt;HomePage -->
<g id="edge6" class="edge">
<title>ReportPage&#45;&gt;HomePage</title>
<path fill="none" stroke="black" d="M605.54,-71.7C613.41,-63.47 622.97,-53.48 631.64,-44.42"/>
<polygon fill="black" stroke="black" points="634.17,-46.84 638.56,-37.2 629.11,-42 634.17,-46.84"/>
</g>
<!-- TabelaRegistos_ -->
<g id="node6" class="node">
<title>TabelaRegistos_</title>
<polygon fill="none" stroke="black" points="790.35,-108 657.6,-108 657.6,-72 790.35,-72 790.35,-108"/>
<text text-anchor="start" x="669.6" y="-84.95" font-family="Helvetica,sans-Serif" font-size="14.00">TabelaRegistos_</text>
</g>
<!-- TabelaRegistos_&#45;&gt;HomePage -->
<g id="edge7" class="edge">
<title>TabelaRegistos_&#45;&gt;HomePage</title>
<path fill="none" stroke="black" d="M707.17,-71.7C699.1,-63.39 689.27,-53.28 680.4,-44.14"/>
<polygon fill="black" stroke="black" points="683.12,-41.92 673.64,-37.19 678.1,-46.8 683.12,-41.92"/>
</g>
<!-- PaginaUserInfos_ -->
<g id="node7" class="node">
<title>PaginaUserInfos_</title>
<polygon fill="none" stroke="black" points="945.97,-108 807.97,-108 807.97,-72 945.97,-72 945.97,-108"/>
<text text-anchor="start" x="819.97" y="-84.95" font-family="Helvetica,sans-Serif" font-size="14.00">PaginaUserInfos_</text>
</g>
<!-- PaginaUserInfos_&#45;&gt;HomePage -->
<g id="edge8" class="edge">
<title>PaginaUserInfos_&#45;&gt;HomePage</title>
<path fill="none" stroke="black" d="M821.78,-71.52C789.38,-61.26 748.45,-48.29 715.36,-37.81"/>
<polygon fill="black" stroke="black" points="716.5,-34.5 705.91,-34.82 714.38,-41.17 716.5,-34.5"/>
</g>
<!-- GymManagmentPhotos_UserInfos -->
<g id="node8" class="node">
<title>GymManagmentPhotos_UserInfos</title>
<polygon fill="none" stroke="black" points="1207.47,-108 964.47,-108 964.47,-72 1207.47,-72 1207.47,-108"/>
<text text-anchor="start" x="976.47" y="-84.95" font-family="Helvetica,sans-Serif" font-size="14.00">GymManagmentPhotos_UserInfos</text>
</g>
<!-- GymManagmentPhotos_UserInfos&#45;&gt;HomePage -->
<g id="edge9" class="edge">
<title>GymManagmentPhotos_UserInfos&#45;&gt;HomePage</title>
<path fill="none" stroke="black" d="M978.58,-71.52C895.45,-57.98 783.41,-39.75 715.61,-28.71"/>
<polygon fill="black" stroke="black" points="716.23,-25.26 705.79,-27.11 715.1,-32.17 716.23,-25.26"/>
</g>
<!-- Version -->
<g id="node9" class="node">
<title>Version</title>
<polygon fill="none" stroke="black" points="1298.35,-108 1225.6,-108 1225.6,-72 1298.35,-72 1298.35,-108"/>
<text text-anchor="start" x="1237.6" y="-84.95" font-family="Helvetica,sans-Serif" font-size="14.00">Version</text>
</g>
<!-- Version&#45;&gt;HomePage -->
<g id="edge10" class="edge">
<title>Version&#45;&gt;HomePage</title>
<path fill="none" stroke="black" d="M1225.39,-74.27C1222.57,-73.41 1219.74,-72.64 1216.97,-72 1037.8,-30.48 819.23,-21.36 715.76,-19.44"/>
<polygon fill="black" stroke="black" points="715.89,-15.95 705.83,-19.28 715.77,-22.94 715.89,-15.95"/>
</g>
</g>
</svg>
